<svg width="182" height="24" viewBox="0 0 182 24" fill="none" xmlns="http://www.w3.org/2000/svg">
<path d="M1.066 23.2422C0.852667 23.2422 0.660667 23.1675 0.49 23.0182C0.319333 22.8475 0.234 22.6449 0.234 22.4102V1.67419C0.234 1.43952 0.319333 1.24752 0.49 1.09819C0.660667 0.927519 0.852667 0.842186 1.066 0.842186H9.834C11.9033 0.842186 13.6953 1.18352 15.21 1.86619C16.7247 2.52752 17.9193 3.50885 18.794 4.81019C19.6687 6.11152 20.138 7.71152 20.202 9.61019C20.2447 10.5275 20.266 11.3382 20.266 12.0422C20.266 12.7462 20.2447 13.5462 20.202 14.4422C20.1167 16.4475 19.658 18.1009 18.826 19.4022C18.0153 20.7035 16.8633 21.6742 15.37 22.3142C13.8767 22.9329 12.0847 23.2422 9.994 23.2422H1.066ZM7.114 17.8022H9.834C10.538 17.8022 11.1353 17.6849 11.626 17.4502C12.1167 17.2155 12.5007 16.8529 12.778 16.3622C13.0553 15.8502 13.2047 15.1995 13.226 14.4102C13.2473 13.7915 13.258 13.2369 13.258 12.7462C13.2793 12.2555 13.2793 11.7649 13.258 11.2742C13.258 10.7835 13.2473 10.2395 13.226 9.64219C13.1833 8.46885 12.842 7.61552 12.202 7.08219C11.5833 6.54885 10.7407 6.28219 9.674 6.28219H7.114V17.8022ZM24.3473 23.2422C24.1339 23.2422 23.9419 23.1675 23.7713 23.0182C23.6006 22.8475 23.5153 22.6449 23.5153 22.4102V1.67419C23.5153 1.43952 23.6006 1.24752 23.7713 1.09819C23.9419 0.927519 24.1339 0.842186 24.3473 0.842186H33.1153C35.1846 0.842186 36.9766 1.18352 38.4913 1.86619C40.0059 2.52752 41.2006 3.50885 42.0753 4.81019C42.9499 6.11152 43.4193 7.71152 43.4833 9.61019C43.5259 10.5275 43.5473 11.3382 43.5473 12.0422C43.5473 12.7462 43.5259 13.5462 43.4833 14.4422C43.3979 16.4475 42.9393 18.1009 42.1073 19.4022C41.2966 20.7035 40.1446 21.6742 38.6513 22.3142C37.1579 22.9329 35.3659 23.2422 33.2753 23.2422H24.3473ZM30.3953 17.8022H33.1153C33.8193 17.8022 34.4166 17.6849 34.9073 17.4502C35.3979 17.2155 35.7819 16.8529 36.0593 16.3622C36.3366 15.8502 36.4859 15.1995 36.5073 14.4102C36.5286 13.7915 36.5393 13.2369 36.5393 12.7462C36.5606 12.2555 36.5606 11.7649 36.5393 11.2742C36.5393 10.7835 36.5286 10.2395 36.5073 9.64219C36.4646 8.46885 36.1233 7.61552 35.4833 7.08219C34.8646 6.54885 34.0219 6.28219 32.9553 6.28219H30.3953V17.8022Z" fill="#C33426"/>
<path d="M47.6605 23.2422C47.4258 23.2422 47.2232 23.1675 47.0525 23.0182C46.8818 22.8475 46.7965 22.6449 46.7965 22.4102V1.67419C46.7965 1.43952 46.8818 1.24752 47.0525 1.09819C47.2232 0.927519 47.4258 0.842186 47.6605 0.842186H51.9165C52.3005 0.842186 52.5885 0.948853 52.7805 1.16219C52.9725 1.37552 53.1005 1.52485 53.1645 1.61019L58.2845 10.5062L63.4045 1.61019C63.4685 1.52485 63.5965 1.37552 63.7885 1.16219C63.9805 0.948853 64.2685 0.842186 64.6525 0.842186H68.9085C69.1432 0.842186 69.3352 0.927519 69.4845 1.09819C69.6552 1.24752 69.7405 1.43952 69.7405 1.67419V22.4102C69.7405 22.6449 69.6552 22.8475 69.4845 23.0182C69.3352 23.1675 69.1432 23.2422 68.9085 23.2422H64.1085C63.8738 23.2422 63.6712 23.1675 63.5005 23.0182C63.3512 22.8475 63.2765 22.6449 63.2765 22.4102V12.0422L60.3965 17.0982C60.2898 17.2689 60.1512 17.4395 59.9805 17.6102C59.8098 17.7809 59.5645 17.8662 59.2445 17.8662H57.2925C56.9938 17.8662 56.7592 17.7809 56.5885 17.6102C56.4178 17.4395 56.2792 17.2689 56.1725 17.0982L53.2925 12.0422V22.4102C53.2925 22.6449 53.2072 22.8475 53.0365 23.0182C52.8872 23.1675 52.6952 23.2422 52.4605 23.2422H47.6605ZM72.582 23.2422C72.39 23.2422 72.2193 23.1782 72.07 23.0502C71.942 22.9009 71.878 22.7302 71.878 22.5382C71.878 22.4529 71.8993 22.3782 71.942 22.3142L79.238 1.83419C79.302 1.59952 79.4407 1.37552 79.654 1.16219C79.8887 0.948853 80.198 0.842186 80.582 0.842186H86.438C86.8433 0.842186 87.1527 0.948853 87.366 1.16219C87.5793 1.37552 87.718 1.59952 87.782 1.83419L95.11 22.3142C95.1313 22.3782 95.142 22.4529 95.142 22.5382C95.142 22.7302 95.0673 22.9009 94.918 23.0502C94.79 23.1782 94.63 23.2422 94.438 23.2422H89.51C89.1473 23.2422 88.8807 23.1569 88.71 22.9862C88.5393 22.8155 88.422 22.6555 88.358 22.5062L87.366 19.8182H79.654L78.662 22.5062C78.598 22.6555 78.4807 22.8155 78.31 22.9862C78.1607 23.1569 77.894 23.2422 77.51 23.2422H72.582ZM81.126 14.4102H85.894L83.494 7.21019L81.126 14.4102ZM98.0973 23.2422C97.8839 23.2422 97.6919 23.1675 97.5213 23.0182C97.3506 22.8475 97.2653 22.6449 97.2653 22.4102V1.67419C97.2653 1.43952 97.3506 1.24752 97.5213 1.09819C97.6919 0.927519 97.8839 0.842186 98.0973 0.842186H107.217C110.119 0.842186 112.391 1.50352 114.033 2.82619C115.697 4.14885 116.529 5.99419 116.529 8.36219C116.529 9.85552 116.188 11.1249 115.505 12.1702C114.823 13.2155 113.927 14.0369 112.817 14.6342L116.977 22.1862C117.041 22.3142 117.073 22.4315 117.073 22.5382C117.073 22.7302 117.009 22.9009 116.881 23.0502C116.753 23.1782 116.593 23.2422 116.401 23.2422H110.993C110.588 23.2422 110.279 23.1462 110.065 22.9542C109.852 22.7409 109.713 22.5489 109.649 22.3782L106.449 15.7862H104.145V22.4102C104.145 22.6449 104.06 22.8475 103.889 23.0182C103.74 23.1675 103.548 23.2422 103.313 23.2422H98.0973ZM104.145 10.5062H107.185C107.932 10.5062 108.487 10.3035 108.849 9.89819C109.212 9.47152 109.393 8.94885 109.393 8.33019C109.393 7.69019 109.212 7.14619 108.849 6.69819C108.508 6.25019 107.953 6.02619 107.185 6.02619H104.145V10.5062ZM120.722 23.2422C120.509 23.2422 120.317 23.1675 120.146 23.0182C119.976 22.8475 119.89 22.6449 119.89 22.4102V1.67419C119.89 1.43952 119.976 1.24752 120.146 1.09819C120.317 0.927519 120.509 0.842186 120.722 0.842186H125.81C126.045 0.842186 126.237 0.927519 126.386 1.09819C126.557 1.24752 126.642 1.43952 126.642 1.67419V8.39419L131.41 1.51419C131.517 1.36485 131.666 1.21552 131.858 1.06619C132.05 0.916853 132.317 0.842186 132.658 0.842186H138.514C138.706 0.842186 138.866 0.916853 138.994 1.06619C139.144 1.19419 139.218 1.35419 139.218 1.54619C139.218 1.67419 139.176 1.79152 139.09 1.89819L132.37 11.5622L139.666 22.1862C139.752 22.2715 139.794 22.3889 139.794 22.5382C139.794 22.7302 139.72 22.9009 139.57 23.0502C139.442 23.1782 139.282 23.2422 139.09 23.2422H133.042C132.637 23.2422 132.328 23.1462 132.114 22.9542C131.922 22.7622 131.805 22.6235 131.762 22.5382L126.642 15.1142V22.4102C126.642 22.6449 126.557 22.8475 126.386 23.0182C126.237 23.1675 126.045 23.2422 125.81 23.2422H120.722ZM142.785 23.2422C142.571 23.2422 142.379 23.1675 142.209 23.0182C142.038 22.8475 141.953 22.6449 141.953 22.4102V1.67419C141.953 1.43952 142.038 1.24752 142.209 1.09819C142.379 0.927519 142.571 0.842186 142.785 0.842186H158.465C158.699 0.842186 158.902 0.927519 159.073 1.09819C159.243 1.24752 159.329 1.43952 159.329 1.67419V5.45019C159.329 5.66352 159.243 5.85552 159.073 6.02619C158.902 6.19685 158.699 6.28219 158.465 6.28219H148.577V9.45019H157.761C157.995 9.45019 158.198 9.53552 158.369 9.70619C158.539 9.85552 158.625 10.0475 158.625 10.2822V13.7382C158.625 13.9729 158.539 14.1755 158.369 14.3462C158.198 14.4955 157.995 14.5702 157.761 14.5702H148.577V17.8022H158.721C158.955 17.8022 159.158 17.8875 159.329 18.0582C159.499 18.2289 159.585 18.4315 159.585 18.6662V22.4102C159.585 22.6449 159.499 22.8475 159.329 23.0182C159.158 23.1675 158.955 23.2422 158.721 23.2422H142.785ZM168.651 23.2422C168.416 23.2422 168.214 23.1675 168.043 23.0182C167.894 22.8475 167.819 22.6449 167.819 22.4102V6.79419H162.315C162.08 6.79419 161.878 6.71952 161.707 6.57019C161.558 6.39952 161.483 6.19685 161.483 5.96219V1.67419C161.483 1.43952 161.558 1.24752 161.707 1.09819C161.878 0.927519 162.08 0.842186 162.315 0.842186H180.299C180.534 0.842186 180.726 0.927519 180.875 1.09819C181.046 1.24752 181.131 1.43952 181.131 1.67419V5.96219C181.131 6.19685 181.046 6.39952 180.875 6.57019C180.726 6.71952 180.534 6.79419 180.299 6.79419H174.795V22.4102C174.795 22.6449 174.71 22.8475 174.539 23.0182C174.39 23.1675 174.198 23.2422 173.963 23.2422H168.651Z" fill="#1D1D1D"/>
</svg>
