<svg width="381" height="362" viewBox="0 0 381 362" fill="none" xmlns="http://www.w3.org/2000/svg">
<rect x="2" y="212.693" width="87" height="87" transform="rotate(-45 2 212.693)" fill="url(#paint0_linear_972_6195)"/>
<rect x="69.1758" y="279.868" width="87" height="87" transform="rotate(-45 69.1758 279.868)" fill="url(#paint1_linear_972_6195)"/>
<rect x="69.1758" y="145.519" width="87" height="87" transform="rotate(-45 69.1758 145.519)" fill="url(#paint2_linear_972_6195)"/>
<rect x="136.35" y="212.693" width="87" height="87" transform="rotate(-45 136.35 212.693)" fill="url(#paint3_linear_972_6195)"/>
<g filter="url(#filter0_f_972_6195)">
<ellipse cx="190.43" cy="180.753" rx="30.438" ry="39.7505" transform="rotate(-88.7023 190.43 180.753)" fill="url(#paint4_radial_972_6195)" fill-opacity="0.7"/>
</g>
<defs>
<filter id="filter0_f_972_6195" x="0.683594" y="0.30957" width="379.492" height="360.887" filterUnits="userSpaceOnUse" color-interpolation-filters="sRGB">
<feFlood flood-opacity="0" result="BackgroundImageFix"/>
<feBlend mode="normal" in="SourceGraphic" in2="BackgroundImageFix" result="shape"/>
<feGaussianBlur stdDeviation="75" result="effect1_foregroundBlur_972_6195"/>
</filter>
<linearGradient id="paint0_linear_972_6195" x1="45.5" y1="212.693" x2="45.5" y2="299.693" gradientUnits="userSpaceOnUse">
<stop stop-color="#F8F8F8"/>
<stop offset="1" stop-color="white"/>
</linearGradient>
<linearGradient id="paint1_linear_972_6195" x1="112.676" y1="279.868" x2="112.676" y2="366.868" gradientUnits="userSpaceOnUse">
<stop stop-color="#F8F8F8"/>
<stop offset="1" stop-color="white"/>
</linearGradient>
<linearGradient id="paint2_linear_972_6195" x1="112.676" y1="145.519" x2="112.676" y2="232.519" gradientUnits="userSpaceOnUse">
<stop stop-color="#F8F8F8"/>
<stop offset="1" stop-color="white"/>
</linearGradient>
<linearGradient id="paint3_linear_972_6195" x1="179.85" y1="212.693" x2="179.85" y2="299.693" gradientUnits="userSpaceOnUse">
<stop stop-color="#F8F8F8"/>
<stop offset="1" stop-color="white"/>
</linearGradient>
<radialGradient id="paint4_radial_972_6195" cx="0" cy="0" r="1" gradientUnits="userSpaceOnUse" gradientTransform="translate(190.43 180.753) rotate(90) scale(39.7505 30.438)">
<stop stop-color="#A70320"/>
<stop offset="1" stop-color="#F43E15" stop-opacity="0.92"/>
</radialGradient>
</defs>
</svg>
