<svg width="184" height="55" viewBox="0 0 184 55" fill="none" xmlns="http://www.w3.org/2000/svg">
<path d="M3.066 30.2422C2.85267 30.2422 2.66067 30.1675 2.49 30.0182C2.31933 29.8475 2.234 29.6449 2.234 29.4102V8.67419C2.234 8.43952 2.31933 8.24752 2.49 8.09819C2.66067 7.92752 2.85267 7.84219 3.066 7.84219H11.834C13.9033 7.84219 15.6953 8.18352 17.21 8.86619C18.7247 9.52752 19.9193 10.5089 20.794 11.8102C21.6687 13.1115 22.138 14.7115 22.202 16.6102C22.2447 17.5275 22.266 18.3382 22.266 19.0422C22.266 19.7462 22.2447 20.5462 22.202 21.4422C22.1167 23.4475 21.658 25.1009 20.826 26.4022C20.0153 27.7035 18.8633 28.6742 17.37 29.3142C15.8767 29.9329 14.0847 30.2422 11.994 30.2422H3.066ZM9.114 24.8022H11.834C12.538 24.8022 13.1353 24.6849 13.626 24.4502C14.1167 24.2155 14.5007 23.8529 14.778 23.3622C15.0553 22.8502 15.2047 22.1995 15.226 21.4102C15.2473 20.7915 15.258 20.2369 15.258 19.7462C15.2793 19.2555 15.2793 18.7649 15.258 18.2742C15.258 17.7835 15.2473 17.2395 15.226 16.6422C15.1833 15.4689 14.842 14.6155 14.202 14.0822C13.5833 13.5489 12.7407 13.2822 11.674 13.2822H9.114V24.8022ZM26.3473 30.2422C26.1339 30.2422 25.9419 30.1675 25.7713 30.0182C25.6006 29.8475 25.5153 29.6449 25.5153 29.4102V8.67419C25.5153 8.43952 25.6006 8.24752 25.7713 8.09819C25.9419 7.92752 26.1339 7.84219 26.3473 7.84219H35.1153C37.1846 7.84219 38.9766 8.18352 40.4913 8.86619C42.0059 9.52752 43.2006 10.5089 44.0753 11.8102C44.9499 13.1115 45.4193 14.7115 45.4833 16.6102C45.5259 17.5275 45.5473 18.3382 45.5473 19.0422C45.5473 19.7462 45.5259 20.5462 45.4833 21.4422C45.3979 23.4475 44.9393 25.1009 44.1073 26.4022C43.2966 27.7035 42.1446 28.6742 40.6513 29.3142C39.1579 29.9329 37.3659 30.2422 35.2753 30.2422H26.3473ZM32.3953 24.8022H35.1153C35.8193 24.8022 36.4166 24.6849 36.9073 24.4502C37.3979 24.2155 37.7819 23.8529 38.0593 23.3622C38.3366 22.8502 38.4859 22.1995 38.5073 21.4102C38.5286 20.7915 38.5393 20.2369 38.5393 19.7462C38.5606 19.2555 38.5606 18.7649 38.5393 18.2742C38.5393 17.7835 38.5286 17.2395 38.5073 16.6422C38.4646 15.4689 38.1233 14.6155 37.4833 14.0822C36.8646 13.5489 36.0219 13.2822 34.9553 13.2822H32.3953V24.8022Z" fill="#C33426"/>
<path d="M49.6605 30.2422C49.4258 30.2422 49.2232 30.1675 49.0525 30.0182C48.8818 29.8475 48.7965 29.6449 48.7965 29.4102V8.67419C48.7965 8.43952 48.8818 8.24752 49.0525 8.09819C49.2232 7.92752 49.4258 7.84219 49.6605 7.84219H53.9165C54.3005 7.84219 54.5885 7.94885 54.7805 8.16219C54.9725 8.37552 55.1005 8.52485 55.1645 8.61019L60.2845 17.5062L65.4045 8.61019C65.4685 8.52485 65.5965 8.37552 65.7885 8.16219C65.9805 7.94885 66.2685 7.84219 66.6525 7.84219H70.9085C71.1432 7.84219 71.3352 7.92752 71.4845 8.09819C71.6552 8.24752 71.7405 8.43952 71.7405 8.67419V29.4102C71.7405 29.6449 71.6552 29.8475 71.4845 30.0182C71.3352 30.1675 71.1432 30.2422 70.9085 30.2422H66.1085C65.8738 30.2422 65.6712 30.1675 65.5005 30.0182C65.3512 29.8475 65.2765 29.6449 65.2765 29.4102V19.0422L62.3965 24.0982C62.2898 24.2689 62.1512 24.4395 61.9805 24.6102C61.8098 24.7809 61.5645 24.8662 61.2445 24.8662H59.2925C58.9938 24.8662 58.7592 24.7809 58.5885 24.6102C58.4178 24.4395 58.2792 24.2689 58.1725 24.0982L55.2925 19.0422V29.4102C55.2925 29.6449 55.2072 29.8475 55.0365 30.0182C54.8872 30.1675 54.6952 30.2422 54.4605 30.2422H49.6605ZM74.582 30.2422C74.39 30.2422 74.2193 30.1782 74.07 30.0502C73.942 29.9009 73.878 29.7302 73.878 29.5382C73.878 29.4529 73.8993 29.3782 73.942 29.3142L81.238 8.83419C81.302 8.59952 81.4407 8.37552 81.654 8.16219C81.8887 7.94885 82.198 7.84219 82.582 7.84219H88.438C88.8433 7.84219 89.1527 7.94885 89.366 8.16219C89.5793 8.37552 89.718 8.59952 89.782 8.83419L97.11 29.3142C97.1313 29.3782 97.142 29.4529 97.142 29.5382C97.142 29.7302 97.0673 29.9009 96.918 30.0502C96.79 30.1782 96.63 30.2422 96.438 30.2422H91.51C91.1473 30.2422 90.8807 30.1569 90.71 29.9862C90.5393 29.8155 90.422 29.6555 90.358 29.5062L89.366 26.8182H81.654L80.662 29.5062C80.598 29.6555 80.4807 29.8155 80.31 29.9862C80.1607 30.1569 79.894 30.2422 79.51 30.2422H74.582ZM83.126 21.4102H87.894L85.494 14.2102L83.126 21.4102ZM100.097 30.2422C99.8839 30.2422 99.6919 30.1675 99.5213 30.0182C99.3506 29.8475 99.2653 29.6449 99.2653 29.4102V8.67419C99.2653 8.43952 99.3506 8.24752 99.5213 8.09819C99.6919 7.92752 99.8839 7.84219 100.097 7.84219H109.217C112.119 7.84219 114.391 8.50352 116.033 9.82619C117.697 11.1489 118.529 12.9942 118.529 15.3622C118.529 16.8555 118.188 18.1249 117.505 19.1702C116.823 20.2155 115.927 21.0369 114.817 21.6342L118.977 29.1862C119.041 29.3142 119.073 29.4315 119.073 29.5382C119.073 29.7302 119.009 29.9009 118.881 30.0502C118.753 30.1782 118.593 30.2422 118.401 30.2422H112.993C112.588 30.2422 112.279 30.1462 112.065 29.9542C111.852 29.7409 111.713 29.5489 111.649 29.3782L108.449 22.7862H106.145V29.4102C106.145 29.6449 106.06 29.8475 105.889 30.0182C105.74 30.1675 105.548 30.2422 105.313 30.2422H100.097ZM106.145 17.5062H109.185C109.932 17.5062 110.487 17.3035 110.849 16.8982C111.212 16.4715 111.393 15.9489 111.393 15.3302C111.393 14.6902 111.212 14.1462 110.849 13.6982C110.508 13.2502 109.953 13.0262 109.185 13.0262H106.145V17.5062ZM122.722 30.2422C122.509 30.2422 122.317 30.1675 122.146 30.0182C121.976 29.8475 121.89 29.6449 121.89 29.4102V8.67419C121.89 8.43952 121.976 8.24752 122.146 8.09819C122.317 7.92752 122.509 7.84219 122.722 7.84219H127.81C128.045 7.84219 128.237 7.92752 128.386 8.09819C128.557 8.24752 128.642 8.43952 128.642 8.67419V15.3942L133.41 8.51419C133.517 8.36485 133.666 8.21552 133.858 8.06619C134.05 7.91685 134.317 7.84219 134.658 7.84219H140.514C140.706 7.84219 140.866 7.91685 140.994 8.06619C141.144 8.19419 141.218 8.35419 141.218 8.54619C141.218 8.67419 141.176 8.79152 141.09 8.89819L134.37 18.5622L141.666 29.1862C141.752 29.2715 141.794 29.3889 141.794 29.5382C141.794 29.7302 141.72 29.9009 141.57 30.0502C141.442 30.1782 141.282 30.2422 141.09 30.2422H135.042C134.637 30.2422 134.328 30.1462 134.114 29.9542C133.922 29.7622 133.805 29.6235 133.762 29.5382L128.642 22.1142V29.4102C128.642 29.6449 128.557 29.8475 128.386 30.0182C128.237 30.1675 128.045 30.2422 127.81 30.2422H122.722ZM144.785 30.2422C144.571 30.2422 144.379 30.1675 144.209 30.0182C144.038 29.8475 143.953 29.6449 143.953 29.4102V8.67419C143.953 8.43952 144.038 8.24752 144.209 8.09819C144.379 7.92752 144.571 7.84219 144.785 7.84219H160.465C160.699 7.84219 160.902 7.92752 161.073 8.09819C161.243 8.24752 161.329 8.43952 161.329 8.67419V12.4502C161.329 12.6635 161.243 12.8555 161.073 13.0262C160.902 13.1969 160.699 13.2822 160.465 13.2822H150.577V16.4502H159.761C159.995 16.4502 160.198 16.5355 160.369 16.7062C160.539 16.8555 160.625 17.0475 160.625 17.2822V20.7382C160.625 20.9729 160.539 21.1755 160.369 21.3462C160.198 21.4955 159.995 21.5702 159.761 21.5702H150.577V24.8022H160.721C160.955 24.8022 161.158 24.8875 161.329 25.0582C161.499 25.2289 161.585 25.4315 161.585 25.6662V29.4102C161.585 29.6449 161.499 29.8475 161.329 30.0182C161.158 30.1675 160.955 30.2422 160.721 30.2422H144.785ZM170.651 30.2422C170.416 30.2422 170.214 30.1675 170.043 30.0182C169.894 29.8475 169.819 29.6449 169.819 29.4102V13.7942H164.315C164.08 13.7942 163.878 13.7195 163.707 13.5702C163.558 13.3995 163.483 13.1969 163.483 12.9622V8.67419C163.483 8.43952 163.558 8.24752 163.707 8.09819C163.878 7.92752 164.08 7.84219 164.315 7.84219H182.299C182.534 7.84219 182.726 7.92752 182.875 8.09819C183.046 8.24752 183.131 8.43952 183.131 8.67419V12.9622C183.131 13.1969 183.046 13.3995 182.875 13.5702C182.726 13.7195 182.534 13.7942 182.299 13.7942H176.795V29.4102C176.795 29.6449 176.71 29.8475 176.539 30.0182C176.39 30.1675 176.198 30.2422 175.963 30.2422H170.651Z" fill="#1D1D1D"/>
<path d="M58.4349 51.2547C57.8483 51.2547 57.3416 51.1534 56.9149 50.9507C56.4883 50.7374 56.1363 50.4547 55.8589 50.1027C55.5923 49.7401 55.3896 49.3294 55.2509 48.8707C55.1229 48.4121 55.0483 47.9267 55.0269 47.4147C55.0163 47.2441 55.0109 47.0841 55.0109 46.9347C55.0109 46.7854 55.0163 46.6254 55.0269 46.4547C55.0483 45.9534 55.1229 45.4734 55.2509 45.0147C55.3896 44.5561 55.5923 44.1454 55.8589 43.7827C56.1363 43.4201 56.4883 43.1374 56.9149 42.9347C57.3416 42.7214 57.8483 42.6147 58.4349 42.6147C59.0643 42.6147 59.5869 42.7267 60.0029 42.9507C60.4189 43.1747 60.7603 43.4521 61.0269 43.7827V40.1027C61.0269 39.9961 61.0589 39.9107 61.1229 39.8467C61.1976 39.7721 61.2883 39.7347 61.3949 39.7347H62.1629C62.2696 39.7347 62.3549 39.7721 62.4189 39.8467C62.4936 39.9107 62.5309 39.9961 62.5309 40.1027V50.7267C62.5309 50.8334 62.4936 50.9241 62.4189 50.9987C62.3549 51.0627 62.2696 51.0947 62.1629 51.0947H61.4429C61.3256 51.0947 61.2349 51.0627 61.1709 50.9987C61.1069 50.9241 61.0749 50.8334 61.0749 50.7267V50.0547C60.8083 50.3961 60.4616 50.6841 60.0349 50.9187C59.6083 51.1427 59.0749 51.2547 58.4349 51.2547ZM58.7709 49.9587C59.3043 49.9587 59.7309 49.8361 60.0509 49.5907C60.3709 49.3454 60.6109 49.0361 60.7709 48.6627C60.9309 48.2787 61.0163 47.8894 61.0269 47.4947C61.0376 47.3241 61.0429 47.1214 61.0429 46.8867C61.0429 46.6414 61.0376 46.4334 61.0269 46.2627C61.0163 45.8894 60.9256 45.5214 60.7549 45.1587C60.5949 44.7961 60.3496 44.4974 60.0189 44.2627C59.6989 44.0281 59.2829 43.9107 58.7709 43.9107C58.2269 43.9107 57.7949 44.0334 57.4749 44.2787C57.1549 44.5134 56.9256 44.8281 56.7869 45.2227C56.6483 45.6067 56.5683 46.0227 56.5469 46.4707C56.5363 46.7801 56.5363 47.0894 56.5469 47.3987C56.5683 47.8467 56.6483 48.2681 56.7869 48.6627C56.9256 49.0467 57.1549 49.3614 57.4749 49.6067C57.7949 49.8414 58.2269 49.9587 58.7709 49.9587ZM68.2226 51.2547C67.1239 51.2547 66.2492 50.9187 65.5986 50.2467C64.9479 49.5641 64.5906 48.6361 64.5266 47.4627C64.5159 47.3241 64.5106 47.1481 64.5106 46.9347C64.5106 46.7107 64.5159 46.5294 64.5266 46.3907C64.5692 45.6334 64.7452 44.9721 65.0546 44.4067C65.3639 43.8307 65.7852 43.3881 66.3186 43.0787C66.8626 42.7694 67.4972 42.6147 68.2226 42.6147C69.0332 42.6147 69.7106 42.7854 70.2546 43.1267C70.8092 43.4681 71.2306 43.9534 71.5186 44.5827C71.8066 45.2121 71.9506 45.9481 71.9506 46.7907V47.0627C71.9506 47.1801 71.9132 47.2707 71.8386 47.3347C71.7746 47.3987 71.6892 47.4307 71.5826 47.4307H66.0466C66.0466 47.4414 66.0466 47.4627 66.0466 47.4947C66.0466 47.5267 66.0466 47.5534 66.0466 47.5747C66.0679 48.0121 66.1639 48.4227 66.3346 48.8067C66.5052 49.1801 66.7506 49.4841 67.0706 49.7187C67.3906 49.9534 67.7746 50.0707 68.2226 50.0707C68.6066 50.0707 68.9266 50.0121 69.1826 49.8947C69.4386 49.7774 69.6466 49.6494 69.8066 49.5107C69.9666 49.3614 70.0732 49.2494 70.1266 49.1747C70.2226 49.0361 70.2972 48.9561 70.3506 48.9347C70.4039 48.9027 70.4892 48.8867 70.6066 48.8867H71.3746C71.4812 48.8867 71.5666 48.9187 71.6306 48.9827C71.7052 49.0361 71.7372 49.1161 71.7266 49.2227C71.7159 49.3827 71.6306 49.5801 71.4706 49.8147C71.3106 50.0387 71.0812 50.2627 70.7826 50.4867C70.4839 50.7107 70.1212 50.8974 69.6946 51.0467C69.2679 51.1854 68.7772 51.2547 68.2226 51.2547ZM66.0466 46.3267H70.4306V46.2787C70.4306 45.7987 70.3399 45.3721 70.1586 44.9987C69.9879 44.6254 69.7372 44.3321 69.4066 44.1187C69.0759 43.8947 68.6812 43.7827 68.2226 43.7827C67.7639 43.7827 67.3692 43.8947 67.0386 44.1187C66.7186 44.3321 66.4732 44.6254 66.3026 44.9987C66.1319 45.3721 66.0466 45.7987 66.0466 46.2787V46.3267ZM76.1837 51.2547C75.6504 51.2547 75.165 51.1481 74.7277 50.9347C74.2904 50.7214 73.9384 50.4334 73.6717 50.0707C73.405 49.7081 73.2717 49.2974 73.2717 48.8387C73.2717 48.1027 73.5704 47.5161 74.1677 47.0787C74.765 46.6414 75.5437 46.3534 76.5037 46.2147L78.8877 45.8787V45.4147C78.8877 44.9027 78.7384 44.5027 78.4397 44.2147C78.1517 43.9267 77.677 43.7827 77.0157 43.7827C76.5357 43.7827 76.1464 43.8787 75.8477 44.0707C75.5597 44.2627 75.357 44.5081 75.2397 44.8067C75.1757 44.9667 75.0637 45.0467 74.9037 45.0467H74.1837C74.0664 45.0467 73.9757 45.0147 73.9117 44.9507C73.8584 44.8761 73.8317 44.7907 73.8317 44.6947C73.8317 44.5347 73.8904 44.3374 74.0077 44.1027C74.1357 43.8681 74.3277 43.6387 74.5837 43.4147C74.8397 43.1907 75.165 43.0041 75.5597 42.8547C75.965 42.6947 76.4557 42.6147 77.0317 42.6147C77.6717 42.6147 78.2104 42.7001 78.6477 42.8707C79.085 43.0307 79.4264 43.2494 79.6717 43.5267C79.9277 43.8041 80.109 44.1187 80.2157 44.4707C80.333 44.8227 80.3917 45.1801 80.3917 45.5427V50.7267C80.3917 50.8334 80.3544 50.9241 80.2797 50.9987C80.2157 51.0627 80.1304 51.0947 80.0237 51.0947H79.2877C79.1704 51.0947 79.0797 51.0627 79.0157 50.9987C78.9517 50.9241 78.9197 50.8334 78.9197 50.7267V50.0387C78.781 50.2307 78.5944 50.4227 78.3597 50.6147C78.125 50.7961 77.8317 50.9507 77.4797 51.0787C77.1277 51.1961 76.6957 51.2547 76.1837 51.2547ZM76.5197 50.0547C76.957 50.0547 77.357 49.9641 77.7197 49.7827C78.0824 49.5907 78.365 49.2974 78.5677 48.9027C78.781 48.5081 78.8877 48.0121 78.8877 47.4147V46.9667L77.0317 47.2387C76.2744 47.3454 75.7037 47.5267 75.3197 47.7827C74.9357 48.0281 74.7437 48.3427 74.7437 48.7267C74.7437 49.0254 74.829 49.2761 74.9997 49.4787C75.181 49.6707 75.405 49.8147 75.6717 49.9107C75.949 50.0067 76.2317 50.0547 76.5197 50.0547ZM83.0758 51.0947C82.9691 51.0947 82.8785 51.0627 82.8038 50.9987C82.7398 50.9241 82.7078 50.8334 82.7078 50.7267V40.1027C82.7078 39.9961 82.7398 39.9107 82.8038 39.8467C82.8785 39.7721 82.9691 39.7347 83.0758 39.7347H83.8278C83.9451 39.7347 84.0358 39.7721 84.0998 39.8467C84.1638 39.9107 84.1958 39.9961 84.1958 40.1027V50.7267C84.1958 50.8334 84.1638 50.9241 84.0998 50.9987C84.0358 51.0627 83.9451 51.0947 83.8278 51.0947H83.0758ZM89.8944 51.2547C88.7958 51.2547 87.9211 50.9187 87.2704 50.2467C86.6198 49.5641 86.2624 48.6361 86.1984 47.4627C86.1878 47.3241 86.1824 47.1481 86.1824 46.9347C86.1824 46.7107 86.1878 46.5294 86.1984 46.3907C86.2411 45.6334 86.4171 44.9721 86.7264 44.4067C87.0358 43.8307 87.4571 43.3881 87.9904 43.0787C88.5344 42.7694 89.1691 42.6147 89.8944 42.6147C90.7051 42.6147 91.3824 42.7854 91.9264 43.1267C92.4811 43.4681 92.9024 43.9534 93.1904 44.5827C93.4784 45.2121 93.6224 45.9481 93.6224 46.7907V47.0627C93.6224 47.1801 93.5851 47.2707 93.5104 47.3347C93.4464 47.3987 93.3611 47.4307 93.2544 47.4307H87.7184C87.7184 47.4414 87.7184 47.4627 87.7184 47.4947C87.7184 47.5267 87.7184 47.5534 87.7184 47.5747C87.7398 48.0121 87.8358 48.4227 88.0064 48.8067C88.1771 49.1801 88.4224 49.4841 88.7424 49.7187C89.0624 49.9534 89.4464 50.0707 89.8944 50.0707C90.2784 50.0707 90.5984 50.0121 90.8544 49.8947C91.1104 49.7774 91.3184 49.6494 91.4784 49.5107C91.6384 49.3614 91.7451 49.2494 91.7984 49.1747C91.8944 49.0361 91.9691 48.9561 92.0224 48.9347C92.0758 48.9027 92.1611 48.8867 92.2784 48.8867H93.0464C93.1531 48.8867 93.2384 48.9187 93.3024 48.9827C93.3771 49.0361 93.4091 49.1161 93.3984 49.2227C93.3878 49.3827 93.3024 49.5801 93.1424 49.8147C92.9824 50.0387 92.7531 50.2627 92.4544 50.4867C92.1558 50.7107 91.7931 50.8974 91.3664 51.0467C90.9398 51.1854 90.4491 51.2547 89.8944 51.2547ZM87.7184 46.3267H92.1024V46.2787C92.1024 45.7987 92.0118 45.3721 91.8304 44.9987C91.6598 44.6254 91.4091 44.3321 91.0784 44.1187C90.7478 43.8947 90.3531 43.7827 89.8944 43.7827C89.4358 43.7827 89.0411 43.8947 88.7104 44.1187C88.3904 44.3321 88.1451 44.6254 87.9744 44.9987C87.8038 45.3721 87.7184 45.7987 87.7184 46.2787V46.3267ZM95.9036 51.0947C95.7969 51.0947 95.7062 51.0627 95.6316 50.9987C95.5676 50.9241 95.5356 50.8334 95.5356 50.7267V43.1587C95.5356 43.0521 95.5676 42.9614 95.6316 42.8867C95.7062 42.8121 95.7969 42.7747 95.9036 42.7747H96.6396C96.7462 42.7747 96.8369 42.8121 96.9116 42.8867C96.9862 42.9614 97.0236 43.0521 97.0236 43.1587V43.8627C97.2369 43.5001 97.5302 43.2281 97.9036 43.0467C98.2769 42.8654 98.7249 42.7747 99.2476 42.7747H99.8876C99.9942 42.7747 100.08 42.8121 100.144 42.8867C100.208 42.9507 100.24 43.0361 100.24 43.1427V43.7987C100.24 43.9054 100.208 43.9907 100.144 44.0547C100.08 44.1187 99.9942 44.1507 99.8876 44.1507H98.9276C98.3516 44.1507 97.8982 44.3214 97.5676 44.6627C97.2369 44.9934 97.0716 45.4467 97.0716 46.0227V50.7267C97.0716 50.8334 97.0342 50.9241 96.9596 50.9987C96.8849 51.0627 96.7942 51.0947 96.6876 51.0947H95.9036ZM108.569 51.2547C107.833 51.2547 107.187 51.1214 106.633 50.8547C106.078 50.5881 105.646 50.2201 105.337 49.7507C105.027 49.2707 104.873 48.7214 104.873 48.1027C104.873 47.6121 104.974 47.1854 105.177 46.8227C105.39 46.4494 105.667 46.1187 106.009 45.8307C106.35 45.5427 106.723 45.2814 107.129 45.0467C106.627 44.5134 106.27 44.0441 106.057 43.6387C105.854 43.2334 105.753 42.8121 105.753 42.3747C105.753 41.8947 105.875 41.4574 106.121 41.0627C106.366 40.6681 106.713 40.3481 107.161 40.1027C107.609 39.8574 108.137 39.7347 108.745 39.7347C109.331 39.7347 109.843 39.8521 110.281 40.0867C110.729 40.3214 111.075 40.6361 111.321 41.0307C111.566 41.4254 111.689 41.8681 111.689 42.3587C111.689 42.8281 111.577 43.2387 111.353 43.5907C111.129 43.9427 110.83 44.2574 110.457 44.5347C110.094 44.8121 109.694 45.0734 109.257 45.3187L111.977 47.9907C112.147 47.6921 112.307 47.3454 112.457 46.9507C112.617 46.5561 112.739 46.0921 112.825 45.5587C112.857 45.3454 112.974 45.2387 113.177 45.2387H113.881C113.977 45.2387 114.057 45.2707 114.121 45.3347C114.185 45.3987 114.217 45.4787 114.217 45.5747C114.206 45.8094 114.169 46.0601 114.105 46.3267C114.051 46.5934 113.966 46.8761 113.849 47.1747C113.742 47.4734 113.609 47.7721 113.449 48.0707C113.299 48.3587 113.123 48.6467 112.921 48.9347L114.553 50.5507C114.649 50.6361 114.697 50.7161 114.697 50.7907C114.697 50.8867 114.67 50.9614 114.617 51.0147C114.563 51.0681 114.483 51.0947 114.377 51.0947H113.481C113.374 51.0947 113.283 51.0787 113.209 51.0467C113.145 51.0147 113.091 50.9774 113.049 50.9347L111.993 49.8947C111.577 50.3001 111.086 50.6307 110.521 50.8867C109.955 51.1321 109.305 51.2547 108.569 51.2547ZM108.569 49.9747C108.995 49.9747 109.422 49.8894 109.849 49.7187C110.275 49.5374 110.67 49.2707 111.033 48.9187L108.041 45.9907C107.582 46.2467 107.182 46.5401 106.841 46.8707C106.51 47.1907 106.345 47.5907 106.345 48.0707C106.345 48.4761 106.446 48.8227 106.649 49.1107C106.862 49.3881 107.139 49.6014 107.481 49.7507C107.822 49.9001 108.185 49.9747 108.569 49.9747ZM108.377 44.3907C108.718 44.1987 109.033 44.0067 109.321 43.8147C109.619 43.6227 109.854 43.4094 110.025 43.1747C110.206 42.9401 110.297 42.6734 110.297 42.3747C110.297 41.9481 110.147 41.6067 109.849 41.3507C109.55 41.0947 109.182 40.9667 108.745 40.9667C108.329 40.9667 107.961 41.0947 107.641 41.3507C107.331 41.5961 107.177 41.9427 107.177 42.3907C107.177 42.5721 107.209 42.7587 107.273 42.9507C107.347 43.1321 107.47 43.3347 107.641 43.5587C107.811 43.7827 108.057 44.0601 108.377 44.3907ZM123.232 51.2547C122.645 51.2547 122.138 51.1534 121.712 50.9507C121.285 50.7374 120.933 50.4547 120.656 50.1027C120.389 49.7401 120.186 49.3294 120.048 48.8707C119.92 48.4121 119.845 47.9267 119.824 47.4147C119.813 47.2441 119.808 47.0841 119.808 46.9347C119.808 46.7854 119.813 46.6254 119.824 46.4547C119.845 45.9534 119.92 45.4734 120.048 45.0147C120.186 44.5561 120.389 44.1454 120.656 43.7827C120.933 43.4201 121.285 43.1374 121.712 42.9347C122.138 42.7214 122.645 42.6147 123.232 42.6147C123.861 42.6147 124.384 42.7267 124.8 42.9507C125.216 43.1747 125.557 43.4521 125.824 43.7827V40.1027C125.824 39.9961 125.856 39.9107 125.92 39.8467C125.994 39.7721 126.085 39.7347 126.192 39.7347H126.96C127.066 39.7347 127.152 39.7721 127.216 39.8467C127.29 39.9107 127.328 39.9961 127.328 40.1027V50.7267C127.328 50.8334 127.29 50.9241 127.216 50.9987C127.152 51.0627 127.066 51.0947 126.96 51.0947H126.24C126.122 51.0947 126.032 51.0627 125.968 50.9987C125.904 50.9241 125.872 50.8334 125.872 50.7267V50.0547C125.605 50.3961 125.258 50.6841 124.832 50.9187C124.405 51.1427 123.872 51.2547 123.232 51.2547ZM123.568 49.9587C124.101 49.9587 124.528 49.8361 124.848 49.5907C125.168 49.3454 125.408 49.0361 125.568 48.6627C125.728 48.2787 125.813 47.8894 125.824 47.4947C125.834 47.3241 125.84 47.1214 125.84 46.8867C125.84 46.6414 125.834 46.4334 125.824 46.2627C125.813 45.8894 125.722 45.5214 125.552 45.1587C125.392 44.7961 125.146 44.4974 124.816 44.2627C124.496 44.0281 124.08 43.9107 123.568 43.9107C123.024 43.9107 122.592 44.0334 122.272 44.2787C121.952 44.5134 121.722 44.8281 121.584 45.2227C121.445 45.6067 121.365 46.0227 121.344 46.4707C121.333 46.7801 121.333 47.0894 121.344 47.3987C121.365 47.8467 121.445 48.2681 121.584 48.6627C121.722 49.0467 121.952 49.3614 122.272 49.6067C122.592 49.8414 123.024 49.9587 123.568 49.9587ZM133.019 51.2547C131.921 51.2547 131.046 50.9187 130.395 50.2467C129.745 49.5641 129.387 48.6361 129.323 47.4627C129.313 47.3241 129.307 47.1481 129.307 46.9347C129.307 46.7107 129.313 46.5294 129.323 46.3907C129.366 45.6334 129.542 44.9721 129.851 44.4067C130.161 43.8307 130.582 43.3881 131.115 43.0787C131.659 42.7694 132.294 42.6147 133.019 42.6147C133.83 42.6147 134.507 42.7854 135.051 43.1267C135.606 43.4681 136.027 43.9534 136.315 44.5827C136.603 45.2121 136.747 45.9481 136.747 46.7907V47.0627C136.747 47.1801 136.71 47.2707 136.635 47.3347C136.571 47.3987 136.486 47.4307 136.379 47.4307H130.843C130.843 47.4414 130.843 47.4627 130.843 47.4947C130.843 47.5267 130.843 47.5534 130.843 47.5747C130.865 48.0121 130.961 48.4227 131.131 48.8067C131.302 49.1801 131.547 49.4841 131.867 49.7187C132.187 49.9534 132.571 50.0707 133.019 50.0707C133.403 50.0707 133.723 50.0121 133.979 49.8947C134.235 49.7774 134.443 49.6494 134.603 49.5107C134.763 49.3614 134.87 49.2494 134.923 49.1747C135.019 49.0361 135.094 48.9561 135.147 48.9347C135.201 48.9027 135.286 48.8867 135.403 48.8867H136.171C136.278 48.8867 136.363 48.9187 136.427 48.9827C136.502 49.0361 136.534 49.1161 136.523 49.2227C136.513 49.3827 136.427 49.5801 136.267 49.8147C136.107 50.0387 135.878 50.2627 135.579 50.4867C135.281 50.7107 134.918 50.8974 134.491 51.0467C134.065 51.1854 133.574 51.2547 133.019 51.2547ZM130.843 46.3267H135.227V46.2787C135.227 45.7987 135.137 45.3721 134.955 44.9987C134.785 44.6254 134.534 44.3321 134.203 44.1187C133.873 43.8947 133.478 43.7827 133.019 43.7827C132.561 43.7827 132.166 43.8947 131.835 44.1187C131.515 44.3321 131.27 44.6254 131.099 44.9987C130.929 45.3721 130.843 45.7987 130.843 46.2787V46.3267ZM141.541 51.2547C140.943 51.2547 140.431 51.1801 140.005 51.0307C139.578 50.8814 139.231 50.7001 138.965 50.4867C138.698 50.2734 138.495 50.0601 138.357 49.8467C138.229 49.6334 138.159 49.4627 138.149 49.3347C138.138 49.2174 138.175 49.1267 138.261 49.0627C138.346 48.9987 138.431 48.9667 138.517 48.9667H139.221C139.285 48.9667 139.333 48.9774 139.365 48.9987C139.407 49.0094 139.461 49.0521 139.525 49.1267C139.663 49.2761 139.818 49.4254 139.989 49.5747C140.159 49.7241 140.367 49.8467 140.613 49.9427C140.869 50.0387 141.183 50.0867 141.557 50.0867C142.101 50.0867 142.549 49.9854 142.901 49.7827C143.253 49.5694 143.429 49.2601 143.429 48.8547C143.429 48.5881 143.354 48.3747 143.205 48.2147C143.066 48.0547 142.81 47.9107 142.437 47.7827C142.074 47.6547 141.573 47.5214 140.933 47.3827C140.293 47.2334 139.786 47.0521 139.413 46.8387C139.039 46.6147 138.773 46.3534 138.613 46.0547C138.453 45.7454 138.373 45.3987 138.373 45.0147C138.373 44.6201 138.49 44.2414 138.725 43.8787C138.959 43.5054 139.301 43.2014 139.749 42.9667C140.207 42.7321 140.778 42.6147 141.461 42.6147C142.015 42.6147 142.49 42.6841 142.885 42.8227C143.279 42.9614 143.605 43.1374 143.861 43.3507C144.117 43.5534 144.309 43.7561 144.437 43.9587C144.565 44.1614 144.634 44.3321 144.645 44.4707C144.655 44.5774 144.623 44.6681 144.549 44.7427C144.474 44.8067 144.389 44.8387 144.293 44.8387H143.621C143.546 44.8387 143.482 44.8227 143.429 44.7907C143.386 44.7587 143.343 44.7214 143.301 44.6787C143.194 44.5401 143.066 44.4014 142.917 44.2627C142.778 44.1241 142.591 44.0121 142.357 43.9267C142.133 43.8307 141.834 43.7827 141.461 43.7827C140.927 43.7827 140.527 43.8947 140.261 44.1187C139.994 44.3427 139.861 44.6254 139.861 44.9667C139.861 45.1694 139.919 45.3507 140.037 45.5107C140.154 45.6707 140.378 45.8147 140.709 45.9427C141.039 46.0707 141.53 46.2094 142.181 46.3587C142.885 46.4974 143.439 46.6841 143.845 46.9187C144.25 47.1534 144.538 47.4254 144.709 47.7347C144.879 48.0441 144.965 48.4014 144.965 48.8067C144.965 49.2547 144.831 49.6654 144.565 50.0387C144.309 50.4121 143.925 50.7107 143.413 50.9347C142.911 51.1481 142.287 51.2547 141.541 51.2547ZM147.185 51.0947C147.078 51.0947 146.987 51.0627 146.913 50.9987C146.849 50.9241 146.817 50.8334 146.817 50.7267V43.1427C146.817 43.0361 146.849 42.9507 146.913 42.8867C146.987 42.8121 147.078 42.7747 147.185 42.7747H147.953C148.059 42.7747 148.145 42.8121 148.209 42.8867C148.273 42.9507 148.305 43.0361 148.305 43.1427V50.7267C148.305 50.8334 148.273 50.9241 148.209 50.9987C148.145 51.0627 148.059 51.0947 147.953 51.0947H147.185ZM147.057 41.2227C146.95 41.2227 146.859 41.1907 146.785 41.1267C146.721 41.0521 146.689 40.9614 146.689 40.8547V39.9907C146.689 39.8841 146.721 39.7987 146.785 39.7347C146.859 39.6601 146.95 39.6227 147.057 39.6227H148.065C148.171 39.6227 148.257 39.6601 148.321 39.7347C148.395 39.7987 148.433 39.8841 148.433 39.9907V40.8547C148.433 40.9614 148.395 41.0521 148.321 41.1267C148.257 41.1907 148.171 41.2227 148.065 41.2227H147.057ZM154.1 54.6147C153.374 54.6147 152.777 54.5187 152.308 54.3267C151.849 54.1347 151.486 53.9001 151.22 53.6227C150.964 53.3561 150.777 53.0841 150.66 52.8067C150.553 52.5401 150.494 52.3267 150.484 52.1667C150.473 52.0601 150.505 51.9694 150.58 51.8947C150.665 51.8201 150.756 51.7827 150.852 51.7827H151.62C151.716 51.7827 151.796 51.8041 151.86 51.8467C151.924 51.8894 151.977 51.9801 152.02 52.1187C152.084 52.2787 152.18 52.4547 152.308 52.6467C152.436 52.8494 152.633 53.0201 152.9 53.1587C153.166 53.3081 153.54 53.3827 154.02 53.3827C154.521 53.3827 154.942 53.3134 155.284 53.1747C155.625 53.0467 155.881 52.8121 156.052 52.4707C156.233 52.1401 156.324 51.6814 156.324 51.0947V50.0067C156.068 50.3374 155.732 50.6147 155.316 50.8387C154.9 51.0521 154.377 51.1587 153.748 51.1587C153.15 51.1587 152.638 51.0574 152.212 50.8547C151.785 50.6414 151.433 50.3587 151.156 50.0067C150.889 49.6441 150.686 49.2334 150.548 48.7747C150.42 48.3161 150.345 47.8361 150.324 47.3347C150.313 47.0361 150.313 46.7427 150.324 46.4547C150.345 45.9534 150.42 45.4734 150.548 45.0147C150.686 44.5561 150.889 44.1454 151.156 43.7827C151.433 43.4201 151.785 43.1374 152.212 42.9347C152.638 42.7214 153.15 42.6147 153.748 42.6147C154.388 42.6147 154.916 42.7374 155.332 42.9827C155.758 43.2174 156.105 43.5054 156.372 43.8467V43.1587C156.372 43.0521 156.404 42.9614 156.468 42.8867C156.542 42.8121 156.633 42.7747 156.74 42.7747H157.476C157.582 42.7747 157.673 42.8121 157.748 42.8867C157.822 42.9614 157.86 43.0521 157.86 43.1587V50.9187C157.86 51.6334 157.737 52.2681 157.492 52.8227C157.257 53.3774 156.862 53.8147 156.308 54.1347C155.764 54.4547 155.028 54.6147 154.1 54.6147ZM154.068 49.8787C154.601 49.8787 155.028 49.7561 155.348 49.5107C155.678 49.2654 155.918 48.9561 156.068 48.5827C156.228 48.2094 156.313 47.8307 156.324 47.4467C156.334 47.2974 156.34 47.1161 156.34 46.9027C156.34 46.6787 156.334 46.4921 156.324 46.3427C156.313 45.9587 156.228 45.5801 156.068 45.2067C155.918 44.8334 155.678 44.5241 155.348 44.2787C155.028 44.0334 154.601 43.9107 154.068 43.9107C153.534 43.9107 153.108 44.0334 152.788 44.2787C152.468 44.5134 152.238 44.8281 152.1 45.2227C151.961 45.6067 151.881 46.0227 151.86 46.4707C151.849 46.7481 151.849 47.0307 151.86 47.3187C151.881 47.7667 151.961 48.1881 152.1 48.5827C152.238 48.9667 152.468 49.2814 152.788 49.5267C153.108 49.7614 153.534 49.8787 154.068 49.8787ZM160.607 51.0947C160.5 51.0947 160.409 51.0627 160.335 50.9987C160.271 50.9241 160.239 50.8334 160.239 50.7267V43.1427C160.239 43.0361 160.271 42.9507 160.335 42.8867C160.409 42.8121 160.5 42.7747 160.607 42.7747H161.359C161.465 42.7747 161.551 42.8121 161.615 42.8867C161.689 42.9507 161.727 43.0361 161.727 43.1427V43.8467C162.004 43.4841 162.351 43.1907 162.767 42.9667C163.193 42.7321 163.737 42.6147 164.399 42.6147C165.092 42.6147 165.679 42.7694 166.159 43.0787C166.649 43.3774 167.017 43.7987 167.263 44.3427C167.508 44.8761 167.631 45.5001 167.631 46.2147V50.7267C167.631 50.8334 167.599 50.9241 167.535 50.9987C167.471 51.0627 167.385 51.0947 167.279 51.0947H166.479C166.372 51.0947 166.281 51.0627 166.207 50.9987C166.143 50.9241 166.111 50.8334 166.111 50.7267V46.2947C166.111 45.5481 165.929 44.9667 165.567 44.5507C165.204 44.1241 164.671 43.9107 163.967 43.9107C163.305 43.9107 162.772 44.1241 162.367 44.5507C161.972 44.9667 161.775 45.5481 161.775 46.2947V50.7267C161.775 50.8334 161.737 50.9241 161.663 50.9987C161.599 51.0627 161.513 51.0947 161.407 51.0947H160.607ZM173.254 51.2547C172.155 51.2547 171.28 50.9187 170.63 50.2467C169.979 49.5641 169.622 48.6361 169.558 47.4627C169.547 47.3241 169.542 47.1481 169.542 46.9347C169.542 46.7107 169.547 46.5294 169.558 46.3907C169.6 45.6334 169.776 44.9721 170.086 44.4067C170.395 43.8307 170.816 43.3881 171.35 43.0787C171.894 42.7694 172.528 42.6147 173.254 42.6147C174.064 42.6147 174.742 42.7854 175.286 43.1267C175.84 43.4681 176.262 43.9534 176.55 44.5827C176.838 45.2121 176.982 45.9481 176.982 46.7907V47.0627C176.982 47.1801 176.944 47.2707 176.87 47.3347C176.806 47.3987 176.72 47.4307 176.614 47.4307H171.078C171.078 47.4414 171.078 47.4627 171.078 47.4947C171.078 47.5267 171.078 47.5534 171.078 47.5747C171.099 48.0121 171.195 48.4227 171.366 48.8067C171.536 49.1801 171.782 49.4841 172.102 49.7187C172.422 49.9534 172.806 50.0707 173.254 50.0707C173.638 50.0707 173.958 50.0121 174.214 49.8947C174.47 49.7774 174.678 49.6494 174.838 49.5107C174.998 49.3614 175.104 49.2494 175.158 49.1747C175.254 49.0361 175.328 48.9561 175.382 48.9347C175.435 48.9027 175.52 48.8867 175.638 48.8867H176.406C176.512 48.8867 176.598 48.9187 176.662 48.9827C176.736 49.0361 176.768 49.1161 176.758 49.2227C176.747 49.3827 176.662 49.5801 176.502 49.8147C176.342 50.0387 176.112 50.2627 175.814 50.4867C175.515 50.7107 175.152 50.8974 174.726 51.0467C174.299 51.1854 173.808 51.2547 173.254 51.2547ZM171.078 46.3267H175.462V46.2787C175.462 45.7987 175.371 45.3721 175.19 44.9987C175.019 44.6254 174.768 44.3321 174.438 44.1187C174.107 43.8947 173.712 43.7827 173.254 43.7827C172.795 43.7827 172.4 43.8947 172.07 44.1187C171.75 44.3321 171.504 44.6254 171.334 44.9987C171.163 45.3721 171.078 45.7987 171.078 46.2787V46.3267ZM179.263 51.0947C179.156 51.0947 179.066 51.0627 178.991 50.9987C178.927 50.9241 178.895 50.8334 178.895 50.7267V43.1587C178.895 43.0521 178.927 42.9614 178.991 42.8867C179.066 42.8121 179.156 42.7747 179.263 42.7747H179.999C180.106 42.7747 180.196 42.8121 180.271 42.8867C180.346 42.9614 180.383 43.0521 180.383 43.1587V43.8627C180.596 43.5001 180.89 43.2281 181.263 43.0467C181.636 42.8654 182.084 42.7747 182.607 42.7747H183.247C183.354 42.7747 183.439 42.8121 183.503 42.8867C183.567 42.9507 183.599 43.0361 183.599 43.1427V43.7987C183.599 43.9054 183.567 43.9907 183.503 44.0547C183.439 44.1187 183.354 44.1507 183.247 44.1507H182.287C181.711 44.1507 181.258 44.3214 180.927 44.6627C180.596 44.9934 180.431 45.4467 180.431 46.0227V50.7267C180.431 50.8334 180.394 50.9241 180.319 50.9987C180.244 51.0627 180.154 51.0947 180.047 51.0947H179.263Z" fill="#1D1D1D"/>
</svg>
